name ./resultDataOpenSim/trcMotMarkerGrf/sub10/grf-15-02.mot
datacolumns 19
datarows 10
range 0.93600000 0.97200000
endheader

                time	     ground_force_vx	     ground_force_vy	     ground_force_vz	     ground_force_px	     ground_force_py	     ground_force_pz	   l_ground_force_vx	   l_ground_force_vy	   l_ground_force_vz	   l_ground_force_px	   l_ground_force_py	   l_ground_force_pz	     ground_torque_x	     ground_torque_y	     ground_torque_z	   l_ground_torque_x	   l_ground_torque_y	   l_ground_torque_z	
          0.93600000	          0.00000000	          0.00000000	          0.00000000	          0.00000000	          0.00000000	          0.00000000	        106.99902892	        562.29332202	        -19.57868687	         -0.00220816	         -0.09999900	         -0.05738172	          0.00000000	          0.00000000	          0.00000000	          0.00000000	         -4.28875646	          0.00000000	
          0.94000000	          0.00000000	          0.00000000	          0.00000000	          0.00000000	          0.00000000	          0.00000000	        110.67224338	        551.54555168	        -19.75070074	         -0.00163146	         -0.09999900	         -0.05699897	          0.00000000	          0.00000000	          0.00000000	          0.00000000	         -4.22214537	          0.00000000	
          0.94400000	          0.00000000	          0.00000000	          0.00000000	          0.00000000	          0.00000000	          0.00000000	        113.84391597	        538.65141468	        -19.69384629	         -0.00107110	         -0.09999900	         -0.05675042	          0.00000000	          0.00000000	          0.00000000	          0.00000000	         -4.12886423	          0.00000000	
          0.94800000	          0.00000000	          0.00000000	          0.00000000	          0.00000000	          0.00000000	          0.00000000	        116.41235524	        523.62235989	        -19.43245778	         -0.00061873	         -0.09999848	         -0.05668770	          0.00000000	          0.00000000	          0.00000000	          0.00000000	         -4.00947580	          0.00000000	
          0.95200000	          0.00000000	          0.00000000	          0.00000000	          0.00000000	          0.00000000	          0.00000000	        118.31880801	        506.70948503	        -19.02152324	         -0.00028749	         -0.09999800	         -0.05680003	          0.00000000	          0.00000000	          0.00000000	          0.00000000	         -3.86607564	          0.00000000	
          0.95600000	          0.00000000	          0.00000000	          0.00000000	          0.00000000	          0.00000000	          0.00000000	        119.52167684	        488.32415418	        -18.52998595	          0.00000325	         -0.09999800	         -0.05701367	          0.00000000	          0.00000000	          0.00000000	          0.00000000	         -3.70242646	          0.00000000	
          0.96000000	          0.00000000	          0.00000000	          0.00000000	          0.00000000	          0.00000000	          0.00000000	        119.98465294	        468.90239839	        -18.00496501	          0.00034409	         -0.09999760	         -0.05725325	          0.00000000	          0.00000000	          0.00000000	          0.00000000	         -3.52333654	          0.00000000	
          0.96400000	          0.00000000	          0.00000000	          0.00000000	          0.00000000	          0.00000000	          0.00000000	        119.69418881	        448.75827033	        -17.45839737	          0.00078328	         -0.09999700	         -0.05747265	          0.00000000	          0.00000000	          0.00000000	          0.00000000	         -3.33358517	          0.00000000	
          0.96800000	          0.00000000	          0.00000000	          0.00000000	          0.00000000	          0.00000000	          0.00000000	        118.67337720	        427.98062027	        -16.87986130	          0.00133384	         -0.09999700	         -0.05764892	          0.00000000	          0.00000000	          0.00000000	          0.00000000	         -3.13694575	          0.00000000	
          0.97200000	          0.00000000	          0.00000000	          0.00000000	          0.00000000	          0.00000000	          0.00000000	        116.96686968	        406.46265587	        -16.24725783	          0.00197348	         -0.09999700	         -0.05778076	          0.00000000	          0.00000000	          0.00000000	          0.00000000	         -2.93575125	          0.00000000	
